# xmcd
#
# Track frame offsets: 
#        150
#        15508
#        39381
#        52539
#        76364
#        96267
#        112138
#        124222
#        136192
#        160168
#        177182
#        190836
#        201334
#        213436
#        223699
#        234368
#        245748
#        254286
#
# Disc length: 3532 seconds
#
# Revision: 0
# Processed by: cddbd v1.5.1PL2 Copyright (c) Steve Scherf et al.
# Submitted via: ExactAudioCopy v0.95b4
#
DISCID=f70dca12
DTITLE=Johnny Cash - Southern Accents
DYEAR=1996
DGENRE=Country
TTITLE0=Jackson
TTITLE1=If I Were A Carpenter
TTITLE2=Wallbash Cannonball
TTITLE3=Wildwoon Flower
TTITLE4=I Used To Be Someone
TTITLE5=Will The Circle Be Unbroken
TTITLE6=Big River
TTITLE7=I Still Miss Someone
TTITLE8=Orange Blossom Special
TTITLE9=I'll Be Waiting
TTITLE10=Pretty Woman (With Roy Orbison)
TTITLE11=I Still Miss Someone (With Joni Mitchell)
TTITLE12=Long Black Veil (With Joni Mitchell)
TTITLE13=Gril Fromt The North Country (With Joni Mitchell)
TTITLE14=Matchbox (With Carl Perkins And Derek and The Dominos)
TTITLE15=Get Rhythm (With Stevie Wonder)
TTITLE16=Oh Susannah (With James Taylor)
TTITLE17=Deep Water (With Linda Rondstadt)
EXTD=
EXTT0=
EXTT1=
EXTT2=
EXTT3=
EXTT4=
EXTT5=
EXTT6=
EXTT7=
EXTT8=
EXTT9=
EXTT10=
EXTT11=
EXTT12=
EXTT13=
EXTT14=
EXTT15=
EXTT16=
EXTT17=
PLAYORDER=
